<svg width="474" height="123" viewBox="0 0 474 123" fill="none" xmlns="http://www.w3.org/2000/svg">
<path d="M62.1376 0H43.1376C40.3376 0 32.6376 5 29.1376 7.5H107.138L101.138 3.5H63.6376L62.1376 0Z" fill="url(#paint0_linear_389_13202)"/>
<path d="M68.6376 13H21.1376C19.9376 13 15.6376 18.6667 13.6376 21.5H122.638L119.138 17.5H70.6376L68.6376 13Z" fill="url(#paint1_linear_389_13202)"/>
<path d="M75.1376 27.5H9.13758L4.63758 36H40.6376C40.6376 36 41.6376 33 45.6376 33C49.6376 33 50.6376 36 50.6376 36H131.138L129.638 32H76.6376L75.1376 27.5Z" fill="url(#paint2_linear_389_13202)"/>
<path d="M0.637578 51.5C0.637578 49.5 1.97091 44.3333 2.63758 42H41.6376C41.6376 42 43.4048 43.5 45.6376 43.5C47.8704 43.5 49.6376 42 49.6376 42H82.6376L84.1376 47H134.638L135.638 51.5H0.637578Z" fill="url(#paint3_linear_389_13202)"/>
<path d="M90.6376 58H0.137578C-0.262422 60.4 0.304244 65.3333 0.637578 67.5C45.3042 67.8333 134.838 68.3 135.638 67.5C136.438 66.7 136.304 63.8333 136.138 62.5H92.1376L90.6376 58Z" fill="url(#paint4_linear_389_13202)"/>
<path d="M5.13672 83.5C3.93672 81.9 2.30339 76.1667 1.63672 73.5H74.6367L76.6367 78.5C95.3034 78.3333 132.737 78.1 133.137 78.5C133.537 78.9 131.97 82 131.137 83.5H5.13672Z" fill="url(#paint5_linear_389_13202)"/>
<path d="M14.1367 98C12.5367 97.6 9.47006 92.1667 8.13672 89.5H82.1367L84.1367 94H124.637L121.637 98H14.1367Z" fill="url(#paint6_linear_389_13202)"/>
<path d="M31.1367 112C28.7367 111.2 22.4701 106.333 19.6367 104L74.1367 103.5L76.1367 108L111.137 108.5L105.137 112C81.4701 112.333 33.5367 112.8 31.1367 112Z" fill="url(#paint7_linear_389_13202)"/>
<path d="M78.1367 122C70.5367 124.4 51.9701 120.667 43.6367 118.5H67.6367L69.6367 122H78.1367Z" fill="url(#paint8_linear_389_13202)"/>
<path d="M240.254 44.342H225.879C225.326 41.606 224.297 39.1983 222.792 37.1189C221.287 35.0396 219.444 33.2749 217.264 31.8248C215.083 30.3747 212.641 29.2803 209.938 28.5416C207.266 27.8029 204.425 27.4335 201.415 27.4335C195.978 27.4335 191.11 28.651 186.81 31.0861C182.54 33.5211 179.162 37.0916 176.674 41.7975C174.217 46.5034 172.988 52.249 172.988 59.0343C172.988 65.8743 174.217 71.6472 176.674 76.3531C179.162 81.0591 182.556 84.6159 186.856 87.0235C191.156 89.4312 195.994 90.6351 201.369 90.6351C204.348 90.6351 207.174 90.2794 209.846 89.568C212.549 88.8293 214.991 87.7486 217.172 86.3259C219.352 84.9031 221.195 83.1658 222.7 81.1138C224.236 79.0344 225.296 76.6541 225.879 73.9728L240.254 74.0139C239.486 78.1452 237.996 81.9483 235.785 85.423C233.604 88.8703 230.794 91.8526 227.354 94.3697C223.944 96.8594 220.043 98.7883 215.651 100.156C211.259 101.524 206.467 102.208 201.276 102.208C193.106 102.208 185.827 100.485 179.438 97.0373C173.049 93.5626 168.012 88.5967 164.326 82.1398C160.671 75.6828 158.844 67.981 158.844 59.0343C158.844 50.0602 160.687 42.3584 164.372 35.9288C168.058 29.4718 173.096 24.5197 179.484 21.0723C185.873 17.5976 193.137 15.8602 201.276 15.8602C206.283 15.8602 210.952 16.5032 215.283 17.7891C219.644 19.0477 223.56 20.9081 227.031 23.3705C230.502 25.8056 233.374 28.7878 235.647 32.3173C237.92 35.8193 239.455 39.8276 240.254 44.342Z" fill="#114471"/>
<path d="M247.93 101.059V17.0094H282.484C289.18 17.0094 294.724 17.9943 299.117 19.9642C303.509 21.9068 306.795 24.547 308.976 27.8849C311.157 31.1955 312.247 34.9301 312.247 39.0889C312.247 42.5909 311.525 45.5458 310.082 47.9535C308.638 50.3338 306.703 52.249 304.277 53.6991C301.881 55.1218 299.239 56.1615 296.352 56.8181V57.6389C299.485 57.7757 302.541 58.6786 305.521 60.3476C308.531 61.9892 311.019 64.3284 312.984 67.3654C314.95 70.4023 315.933 74.0959 315.933 78.4462C315.933 82.7417 314.797 86.5995 312.524 90.0195C310.281 93.4121 306.811 96.107 302.111 98.1043C297.412 100.074 291.407 101.059 284.097 101.059H247.93ZM262.166 90.1836H282.715C289.533 90.1836 294.417 89.0071 297.366 86.6542C300.314 84.3012 301.789 81.36 301.789 77.8306C301.789 75.1767 301.036 72.7416 299.531 70.5255C298.026 68.3093 295.876 66.5446 293.081 65.2313C290.317 63.918 287.03 63.2614 283.222 63.2614H262.166V90.1836ZM262.166 53.3708H281.24C284.435 53.3708 287.307 52.8236 289.856 51.7292C292.436 50.6348 294.479 49.1026 295.984 47.1327C297.519 45.1354 298.287 42.7825 298.287 40.0738C298.287 36.5991 296.92 33.6853 294.187 31.3323C291.453 28.9793 287.261 27.8029 281.609 27.8029H262.166V53.3708Z" fill="#114471"/>
<path d="M374.922 39.0889C374.431 35.2037 372.404 32.1941 368.841 30.0601C365.278 27.8986 360.794 26.8179 355.388 26.8179C351.518 26.8179 348.17 27.3651 345.344 28.4595C342.518 29.5265 340.322 31.004 338.755 32.8918C337.22 34.7523 336.452 36.8727 336.452 39.253C336.452 41.2503 336.974 42.974 338.018 44.4241C339.093 45.8741 340.491 47.0917 342.211 48.0766C343.962 49.0342 345.835 49.8413 347.832 50.498C349.828 51.1272 351.748 51.6471 353.591 52.0575L362.805 54.1916C365.815 54.8482 368.902 55.7374 372.066 56.8592C375.23 57.9809 378.163 59.4584 380.866 61.2915C383.569 63.1246 385.749 65.3955 387.408 68.1041C389.097 70.8127 389.942 74.0549 389.942 77.8306C389.942 82.5912 388.56 86.8183 385.796 90.5119C383.062 94.2055 379.084 97.1194 373.863 99.2534C368.672 101.388 362.391 102.455 355.019 102.455C347.955 102.455 341.842 101.456 336.682 99.4586C331.522 97.4614 327.483 94.6296 324.565 90.9634C321.647 87.2698 320.035 82.8922 319.728 77.8306H334.01C334.287 80.8676 335.392 83.3984 337.327 85.423C339.293 87.4203 341.796 88.9114 344.837 89.8963C347.909 90.8539 351.272 91.3327 354.927 91.3327C358.951 91.3327 362.529 90.7719 365.662 89.6501C368.825 88.501 371.313 86.9141 373.126 84.8895C374.938 82.8375 375.844 80.4435 375.844 77.7075C375.844 75.2177 375.045 73.1794 373.448 71.5925C371.882 70.0056 369.747 68.6924 367.044 67.6527C364.372 66.613 361.346 65.6964 357.968 64.903L346.818 62.1944C339.262 60.3612 333.273 57.6663 328.85 54.1095C324.458 50.5527 322.262 45.8468 322.262 39.9917C322.262 35.149 323.736 30.9219 326.685 27.3104C329.633 23.6989 333.626 20.8945 338.663 18.8972C343.701 16.8725 349.383 15.8602 355.71 15.8602C362.099 15.8602 367.735 16.8589 372.619 18.8562C377.533 20.8534 381.403 23.6031 384.229 27.1052C387.055 30.5799 388.529 34.5745 388.652 39.0889H374.922Z" fill="#114471"/>
<path d="M428.141 101.059H397.595V17.0094H429.109C438.354 17.0094 446.294 18.692 452.928 22.0573C459.563 25.3952 464.646 30.1969 468.178 36.4623C471.741 42.7004 473.523 50.1833 473.523 58.9112C473.523 67.6664 471.726 75.1903 468.132 81.4831C464.569 87.7759 459.409 92.6187 452.652 96.0113C445.894 99.3766 437.724 101.059 428.141 101.059ZM411.832 89.9784H427.358C434.545 89.9784 440.519 88.7746 445.28 86.3669C450.041 83.9319 453.604 80.4161 455.969 75.8196C458.334 71.1958 459.517 65.5596 459.517 58.9112C459.517 52.3174 458.334 46.7223 455.969 42.1258C453.635 37.5293 450.149 34.0409 445.511 31.6606C440.873 29.2803 435.114 28.0901 428.233 28.0901H411.832V89.9784Z" fill="#114471"/>
<defs>
<linearGradient id="paint0_linear_389_13202" x1="-7.5" y1="20" x2="172.425" y2="181.144" gradientUnits="userSpaceOnUse">
<stop offset="0.01" stop-color="#002E5F"/>
<stop offset="0.14" stop-color="#00356E"/>
<stop offset="0.334559" stop-color="#114471"/>
<stop offset="0.437218" stop-color="#0A5191"/>
<stop offset="0.590461" stop-color="#83A7CC"/>
<stop offset="0.808099" stop-color="#E9EFFD"/>
</linearGradient>
<linearGradient id="paint1_linear_389_13202" x1="-7.5" y1="20" x2="172.425" y2="181.144" gradientUnits="userSpaceOnUse">
<stop offset="0.01" stop-color="#002E5F"/>
<stop offset="0.14" stop-color="#00356E"/>
<stop offset="0.334559" stop-color="#114471"/>
<stop offset="0.437218" stop-color="#0A5191"/>
<stop offset="0.590461" stop-color="#83A7CC"/>
<stop offset="0.808099" stop-color="#E9EFFD"/>
</linearGradient>
<linearGradient id="paint2_linear_389_13202" x1="-7.5" y1="20" x2="172.425" y2="181.144" gradientUnits="userSpaceOnUse">
<stop offset="0.01" stop-color="#002E5F"/>
<stop offset="0.14" stop-color="#00356E"/>
<stop offset="0.334559" stop-color="#114471"/>
<stop offset="0.437218" stop-color="#0A5191"/>
<stop offset="0.590461" stop-color="#83A7CC"/>
<stop offset="0.808099" stop-color="#E9EFFD"/>
</linearGradient>
<linearGradient id="paint3_linear_389_13202" x1="-7.5" y1="20" x2="172.425" y2="181.144" gradientUnits="userSpaceOnUse">
<stop offset="0.01" stop-color="#002E5F"/>
<stop offset="0.14" stop-color="#00356E"/>
<stop offset="0.334559" stop-color="#114471"/>
<stop offset="0.437218" stop-color="#0A5191"/>
<stop offset="0.590461" stop-color="#83A7CC"/>
<stop offset="0.808099" stop-color="#E9EFFD"/>
</linearGradient>
<linearGradient id="paint4_linear_389_13202" x1="-7.5" y1="20" x2="172.425" y2="181.144" gradientUnits="userSpaceOnUse">
<stop offset="0.01" stop-color="#002E5F"/>
<stop offset="0.14" stop-color="#00356E"/>
<stop offset="0.334559" stop-color="#114471"/>
<stop offset="0.437218" stop-color="#0A5191"/>
<stop offset="0.590461" stop-color="#83A7CC"/>
<stop offset="0.808099" stop-color="#E9EFFD"/>
</linearGradient>
<linearGradient id="paint5_linear_389_13202" x1="-7.5" y1="20" x2="172.425" y2="181.144" gradientUnits="userSpaceOnUse">
<stop offset="0.01" stop-color="#002E5F"/>
<stop offset="0.14" stop-color="#00356E"/>
<stop offset="0.334559" stop-color="#114471"/>
<stop offset="0.437218" stop-color="#0A5191"/>
<stop offset="0.590461" stop-color="#83A7CC"/>
<stop offset="0.808099" stop-color="#E9EFFD"/>
</linearGradient>
<linearGradient id="paint6_linear_389_13202" x1="-7.5" y1="20" x2="172.425" y2="181.144" gradientUnits="userSpaceOnUse">
<stop offset="0.01" stop-color="#002E5F"/>
<stop offset="0.14" stop-color="#00356E"/>
<stop offset="0.334559" stop-color="#114471"/>
<stop offset="0.437218" stop-color="#0A5191"/>
<stop offset="0.590461" stop-color="#83A7CC"/>
<stop offset="0.808099" stop-color="#E9EFFD"/>
</linearGradient>
<linearGradient id="paint7_linear_389_13202" x1="-7.5" y1="20" x2="172.425" y2="181.144" gradientUnits="userSpaceOnUse">
<stop offset="0.01" stop-color="#002E5F"/>
<stop offset="0.14" stop-color="#00356E"/>
<stop offset="0.334559" stop-color="#114471"/>
<stop offset="0.437218" stop-color="#0A5191"/>
<stop offset="0.590461" stop-color="#83A7CC"/>
<stop offset="0.808099" stop-color="#E9EFFD"/>
</linearGradient>
<linearGradient id="paint8_linear_389_13202" x1="-7.5" y1="20" x2="172.425" y2="181.144" gradientUnits="userSpaceOnUse">
<stop offset="0.01" stop-color="#002E5F"/>
<stop offset="0.14" stop-color="#00356E"/>
<stop offset="0.334559" stop-color="#114471"/>
<stop offset="0.437218" stop-color="#0A5191"/>
<stop offset="0.590461" stop-color="#83A7CC"/>
<stop offset="0.808099" stop-color="#E9EFFD"/>
</linearGradient>
</defs>
</svg>
